<svg viewBox="0 0 757 189" fill="currentColor" xmlns="http://www.w3.org/2000/svg" class="h-4 md:h-6" role="img" aria-label="NetSoc Logo">
  <title>NetSoc Logo</title>
  <path d="M0.849243 187.512V104.409C0.849243 86.3164 7.34682 70.9063 20.342 58.178C33.4621 45.3267 49.2062 38.9006 67.5744 38.9006C85.5677 38.9006 100.937 45.3267 113.682 58.1789C126.427 71.031 132.8 86.5036 132.8 104.596V187.699H98.8752V103.473C98.8752 94.9885 95.5639 87.8138 88.9414 81.9492C82.4438 75.9598 74.7592 72.9651 65.8875 72.9651C57.3907 72.9651 50.0184 75.8974 43.7707 81.762C37.648 87.5018 34.5867 94.5518 34.5867 102.912V187.512H0.849243Z"></path>
  <path d="M268.312 103.473C265.563 93.4911 260.315 85.6925 252.568 80.0774C244.946 74.4624 235.824 71.6549 225.203 71.6549C213.457 71.6549 203.211 75.8974 194.464 84.3823C185.843 92.7425 181.532 102.662 181.532 114.142C181.532 116.138 181.594 117.636 181.719 118.634C183.094 130.987 188.279 140.72 197.276 147.832C205.273 154.196 214.769 157.378 225.765 157.378C232.013 157.378 237.886 156.317 243.384 154.196C248.882 151.95 253.567 148.643 257.441 144.276L278.808 166.362C271.186 174.098 263.189 179.713 254.817 183.207C246.445 186.701 236.761 188.448 225.765 188.448C205.148 188.448 187.467 181.335 172.723 167.11C157.978 152.886 150.606 135.604 150.606 115.265C150.606 94.6765 157.728 77.1452 171.973 62.6708C186.343 48.0718 203.774 40.7722 224.266 40.7722C244.883 40.7722 262.876 48.4461 278.246 63.7938C293.74 79.0168 301.487 96.7978 301.487 117.137C301.487 119.383 301.487 121.566 301.487 123.688C301.112 125.559 300.862 126.932 300.737 127.805H195.027C192.778 127.805 191.341 126.869 190.716 124.998C190.091 123.126 189.779 120.568 189.779 117.324C189.779 115.951 189.779 114.953 189.779 114.329C189.779 112.707 189.779 111.459 189.779 110.586C189.779 108.215 190.029 106.468 190.528 105.345C191.028 104.097 192.215 103.473 194.09 103.473H268.312Z"></path>
  <path d="M317.794 0.343994H349.282V37.7775H371.024V70.7191H349.282V132.859C349.282 136.228 349.844 139.16 350.969 141.656C352.218 144.151 354.155 146.709 356.779 149.33C361.777 154.321 367.65 156.816 374.398 156.816C376.647 156.816 378.396 156.691 379.646 156.442V187.137C378.771 187.137 377.771 187.137 376.647 187.137C375.647 187.262 374.96 187.325 374.585 187.325C368.962 187.325 363.464 186.451 358.091 184.704C351.469 182.583 344.159 178.777 336.162 173.287C331.289 169.918 327.103 164.677 323.604 157.565C319.73 149.704 317.794 141.718 317.794 133.608V0.343994Z"></path>
  <path d="M399.701 187.886V155.319C404.449 154.445 408.448 153.073 411.696 151.201C415.07 149.205 418.381 146.397 421.63 142.779C426.753 137.288 429.502 130.613 429.877 122.752C430.252 114.766 430.564 108.09 430.814 102.725C431.689 93.9903 432.626 87.7513 433.626 84.008C435.125 78.3929 437.687 72.8403 441.31 67.35C447.308 58.366 453.868 51.7527 460.99 47.5103C468.613 42.8935 477.547 40.5851 487.793 40.5851V73.9009C479.796 75.6478 473.236 79.7655 468.113 86.254C465.364 89.623 463.614 93.0544 462.865 96.5482C462.115 100.042 461.74 104.472 461.74 109.837C461.74 111.334 461.74 112.707 461.74 113.955C461.74 115.203 461.74 116.263 461.74 117.137C461.74 128.616 460.865 137.6 459.116 144.089C457.367 150.577 453.618 157.378 447.87 164.49C441.248 172.725 434.188 178.715 426.691 182.458C419.194 186.077 410.197 187.886 399.701 187.886Z"></path>
  <path d="M576.822 187.325C553.831 187.325 535.588 179.775 522.093 164.677C509.972 151.076 503.912 134.356 503.912 114.516C503.912 94.427 510.097 77.3947 522.467 63.4195C536.337 47.8222 555.018 40.0236 578.509 40.0236C601.5 40.0236 619.744 47.5727 633.239 62.6709C645.359 76.2717 651.419 92.9921 651.419 112.832C651.419 132.921 645.234 149.953 632.864 163.929C618.994 179.526 600.313 187.325 576.822 187.325ZM580.008 70.5319C566.389 70.5319 555.58 75.0239 547.583 84.008C540.336 92.1186 536.712 102.039 536.712 113.768C536.712 125.123 540.148 134.668 547.021 142.404C554.768 151.014 565.264 155.319 578.509 155.319C592.129 155.319 602.937 150.827 610.934 141.843C618.182 133.732 621.805 123.812 621.805 112.083C621.805 100.728 618.369 91.1828 611.497 83.4465C603.75 74.8368 593.254 70.5319 580.008 70.5319Z"></path>
  <path d="M756.755 151.014V184.517C750.757 186.014 744.635 186.763 738.387 186.763C717.77 186.763 700.214 179.464 685.719 164.864C671.225 150.265 663.977 132.609 663.977 111.896C663.977 91.5571 671.225 74.3376 685.719 60.2377C700.339 46.1377 717.957 39.0877 738.574 39.0877C744.072 39.0877 749.883 39.8988 756.005 41.5209V74.2752C750.882 71.9045 745.26 70.7191 739.137 70.7191C727.766 70.7191 717.832 74.4624 709.335 81.9491C700.339 89.935 695.84 100.104 695.84 112.457C695.84 125.06 700.339 135.417 709.335 143.527C717.707 151.139 727.641 154.945 739.137 154.945C745.384 154.945 751.257 153.634 756.755 151.014Z"></path>
</svg>
