<svg width="372" height="49" viewBox="0 0 372 49" fill="none" xmlns="http://www.w3.org/2000/svg">
<path d="M19.328 48.64C16.128 48.64 13.3547 48.1067 11.008 47.04C8.66133 45.9733 6.848 44.4587 5.568 42.496C4.33067 40.4907 3.69067 38.144 3.648 35.456H11.648C11.648 37.376 12.3307 38.8907 13.696 40C15.104 41.0667 17.0027 41.6 19.392 41.6C21.696 41.6 23.488 41.0667 24.768 40C26.0907 38.9333 26.752 37.4613 26.752 35.584C26.752 34.0053 26.2827 32.64 25.344 31.488C24.448 30.2933 23.1467 29.4827 21.44 29.056L16.064 27.584C12.3947 26.6453 9.55733 24.96 7.552 22.528C5.58933 20.096 4.608 17.152 4.608 13.696C4.608 11.0507 5.20533 8.74666 6.4 6.784C7.59467 4.82133 9.28 3.30666 11.456 2.24C13.6747 1.17333 16.2773 0.639999 19.264 0.639999C23.7867 0.639999 27.3707 1.81333 30.016 4.16C32.6613 6.464 34.0053 9.57866 34.048 13.504H26.048C26.048 11.6693 25.4507 10.24 24.256 9.216C23.0613 8.14933 21.376 7.616 19.2 7.616C17.1093 7.616 15.488 8.10666 14.336 9.088C13.184 10.0693 12.608 11.456 12.608 13.248C12.608 14.8693 13.0347 16.256 13.888 17.408C14.784 18.5173 16.064 19.3067 17.728 19.776L23.296 21.312C27.008 22.2507 29.8453 23.936 31.808 26.368C33.7707 28.7573 34.752 31.7227 34.752 35.264C34.752 37.9093 34.112 40.256 32.832 42.304C31.552 44.3093 29.76 45.8667 27.456 46.976C25.152 48.0853 22.4427 48.64 19.328 48.64ZM44.135 48V40.96H53.543V8.32H44.135V1.28H71.015V8.32H61.607V40.96H71.015V48H44.135ZM96.078 48.64C92.878 48.64 90.1047 48.1067 87.758 47.04C85.4113 45.9733 83.598 44.4587 82.318 42.496C81.0807 40.4907 80.4407 38.144 80.398 35.456H88.398C88.398 37.376 89.0807 38.8907 90.446 40C91.854 41.0667 93.7527 41.6 96.142 41.6C98.446 41.6 100.238 41.0667 101.518 40C102.841 38.9333 103.502 37.4613 103.502 35.584C103.502 34.0053 103.033 32.64 102.094 31.488C101.198 30.2933 99.8967 29.4827 98.19 29.056L92.814 27.584C89.1447 26.6453 86.3073 24.96 84.302 22.528C82.3393 20.096 81.358 17.152 81.358 13.696C81.358 11.0507 81.9553 8.74666 83.15 6.784C84.3447 4.82133 86.03 3.30666 88.206 2.24C90.4247 1.17333 93.0273 0.639999 96.014 0.639999C100.537 0.639999 104.121 1.81333 106.766 4.16C109.411 6.464 110.755 9.57866 110.798 13.504H102.798C102.798 11.6693 102.201 10.24 101.006 9.216C99.8113 8.14933 98.126 7.616 95.95 7.616C93.8593 7.616 92.238 8.10666 91.086 9.088C89.934 10.0693 89.358 11.456 89.358 13.248C89.358 14.8693 89.7847 16.256 90.638 17.408C91.534 18.5173 92.814 19.3067 94.478 19.776L100.046 21.312C103.758 22.2507 106.595 23.936 108.558 26.368C110.521 28.7573 111.502 31.7227 111.502 35.264C111.502 37.9093 110.862 40.256 109.582 42.304C108.302 44.3093 106.51 45.8667 104.206 46.976C101.902 48.0853 99.1927 48.64 96.078 48.64ZM130.293 48V8.704H118.069V1.28H150.581V8.704H138.357V48H130.293ZM159.132 48V1.28H187.164V8.256H167.004V20.416H184.924V27.328H167.004V41.024H187.164V48H159.132ZM195.459 48V1.28H204.931L209.475 16.128C209.944 17.6213 210.328 18.9867 210.627 20.224C210.926 21.4613 211.118 22.3573 211.203 22.912C211.288 22.3573 211.48 21.4613 211.779 20.224C212.078 18.9867 212.44 17.6213 212.867 16.128L217.219 1.28H226.691V48H219.203V33.472C219.203 31.3387 219.267 29.0133 219.395 26.496C219.523 23.9787 219.672 21.4613 219.843 18.944C220.014 16.4267 220.206 14.0373 220.419 11.776C220.675 9.51466 220.888 7.53067 221.059 5.824L214.787 27.904H207.491L201.027 5.824C201.24 7.44533 201.454 9.36533 201.667 11.584C201.88 13.76 202.072 16.1067 202.243 18.624C202.456 21.0987 202.627 23.616 202.755 26.176C202.883 28.736 202.947 31.168 202.947 33.472V48H195.459Z" fill="black"/>
<path d="M300.056 48V40.256L314.648 25.6C316.696 23.5093 318.211 21.632 319.192 19.968C320.173 18.2613 320.664 16.512 320.664 14.72C320.664 12.544 320.067 10.8587 318.872 9.664C317.677 8.42666 316.056 7.808 314.008 7.808C311.747 7.808 309.976 8.46933 308.696 9.792C307.416 11.072 306.776 12.864 306.776 15.168H298.776C298.819 12.1813 299.459 9.62133 300.696 7.488C301.976 5.312 303.768 3.62667 306.072 2.432C308.376 1.23733 311.064 0.639999 314.136 0.639999C317.08 0.639999 319.64 1.19467 321.816 2.304C323.992 3.41333 325.677 4.97066 326.872 6.976C328.067 8.98133 328.664 11.3707 328.664 14.144C328.664 17.0027 327.917 19.7973 326.424 22.528C324.973 25.216 322.627 28.1173 319.384 31.232L309.656 40.768H329.24V48H300.056ZM352.511 48.64C348.202 48.64 344.746 47.5733 342.143 45.44C339.54 43.264 338.111 40.32 337.855 36.608H345.855C346.026 38.2293 346.666 39.488 347.775 40.384C348.927 41.2373 350.506 41.664 352.511 41.664C354.73 41.664 356.415 41.088 357.567 39.936C358.719 38.7413 359.295 37.0987 359.295 35.008V30.464C359.295 28.3307 358.719 26.7093 357.567 25.6C356.415 24.448 354.73 23.872 352.511 23.872C351.146 23.872 349.972 24.1493 348.991 24.704C348.01 25.2587 347.263 26.0267 346.751 27.008H338.943L339.263 1.28H365.567V8.512H346.815L346.687 22.08H348.543L346.623 23.68C346.623 21.7173 347.391 20.1813 348.927 19.072C350.506 17.92 352.618 17.344 355.263 17.344C359.06 17.3013 362.004 18.4533 364.095 20.8C366.228 23.104 367.295 26.3253 367.295 30.464V35.008C367.295 39.232 365.972 42.56 363.327 44.992C360.724 47.424 357.119 48.64 352.511 48.64Z" fill="black"/>
<path d="M287 25C287 38.2548 276.255 49 263 49C249.745 49 239 38.2548 239 25C239 11.7452 249.745 1 263 1C276.255 1 287 11.7452 287 25ZM248.6 25C248.6 32.9529 255.047 39.4 263 39.4C270.953 39.4 277.4 32.9529 277.4 25C277.4 17.0471 270.953 10.6 263 10.6C255.047 10.6 248.6 17.0471 248.6 25Z" fill="url(#paint0_linear_9_21)"/>
<defs>
<linearGradient id="paint0_linear_9_21" x1="239" y1="9.5" x2="287" y2="44.5" gradientUnits="userSpaceOnUse">
<stop stop-color="#29DF84"/>
<stop offset="1" stop-color="#1AAEE4"/>
</linearGradient>
</defs>
</svg>
