<svg version="1.2" xmlns="http://www.w3.org/2000/svg" viewBox="0 0 1890 1524" width="1890" height="1524">
	<title>brick-svg</title>
	<style>
		.s0 { fill: #050505 } 
		.s1 { fill: #fefefe } 
		.s2 { fill: #a81e22 } 
	</style>
	<path id="&lt;Compound Path&gt;" fill-rule="evenodd" class="s0" d="m1221.5 24l621.8 358.7 46.3 26.7v589.7l-55 24.4-1082.6 480.7-43.1 19.1-40.8-23.5-621.7-358.8-46.4-26.7v-589.6l55.1-24.4 1082.5-480.8 43.1-19.1zm-1128.9 560.9v476l621.7 358.7 1082.7-480.7v-475.9l-621.8-358.7z"/>
	<path id="&lt;Path&gt;" class="s1" d="m1175.2 104.2l621.8 358.7v476l-1082.6 480.6-621.7-358.7v-475.9z"/>
	<path id="&lt;Path&gt;" class="s1" d="m1177.9 52.3l-21.5 9.6-1082.5 480.7-27.5 12.2v30.1 475.9 26.7l23.1 13.4 621.8 358.8 20.3 11.7 21.6-9.5 1082.6-480.7 27.5-12.2v-30.1-476-26.7l-23.2-13.4-621.8-358.7z"/>
	<path id="&lt;Path&gt;" class="s2" d="m715.8 916.6l1052.2-470.4-592.8-342-1055.1 468.5z"/>
	<path id="&lt;Path&gt;" class="s2" d="m737.5 957.6v451.7l1059.5-470.4v-454.9z"/>
	<path id="&lt;Path&gt;" class="s2" d="m691.1 955.9l-598.4-345.5v450.4l598.4 345.3z"/>
</svg>