<?xml version="1.0" encoding="UTF-8" standalone="no"?>
<!-- Created with Inkscape (http://www.inkscape.org/) -->

<svg
   width="210mm"
   height="210mm"
   viewBox="0 0 210 210"
   version="1.1"
   id="svg5"
   xml:space="preserve"
   inkscape:version="1.2.2 (732a01da63, 2022-12-09)"
   sodipodi:docname="netsoc_logo_svg.svg"
   xmlns:inkscape="http://www.inkscape.org/namespaces/inkscape"
   xmlns:sodipodi="http://sodipodi.sourceforge.net/DTD/sodipodi-0.dtd"
   xmlns="http://www.w3.org/2000/svg"
   xmlns:svg="http://www.w3.org/2000/svg"><sodipodi:namedview
     id="namedview7"
     pagecolor="#505050"
     bordercolor="#eeeeee"
     borderopacity="1"
     inkscape:showpageshadow="0"
     inkscape:pageopacity="0"
     inkscape:pagecheckerboard="0"
     inkscape:deskcolor="#505050"
     inkscape:document-units="mm"
     showgrid="false"
     inkscape:zoom="0.81806815"
     inkscape:cx="237.14406"
     inkscape:cy="372.82957"
     inkscape:window-width="1680"
     inkscape:window-height="997"
     inkscape:window-x="-8"
     inkscape:window-y="-8"
     inkscape:window-maximized="1"
     inkscape:current-layer="text1853" /><defs
     id="defs2" /><g
     inkscape:label="Layer 1"
     inkscape:groupmode="layer"
     id="layer1"><g
       id="path111"
       style="display:none" /><g
       aria-label="netsoc"
       transform="scale(1.0007007,0.9992998)"
       id="text1853"
       style="font-size:11.5098px;line-height:1.25;stroke-width:0.287745"><path
         d="m 4.9965001,125.92818 v -22.00294 q 0,-7.185646 5.1538409,-12.240375 5.203398,-5.104285 12.488154,-5.104285 7.136088,0 12.190817,5.104285 5.054729,5.104285 5.054729,12.289925 v 22.00294 h -8.969666 v -22.30027 q 0,-3.36982 -2.626477,-5.698962 -2.57692,-2.378696 -6.095408,-2.378696 -3.36982,0 -5.847628,2.32914 -2.428252,2.279588 -2.428252,5.599848 v 22.39939 z"
         style="font-weight:100;font-size:59.4674px;font-family:Brandish;-inkscape-font-specification:'Brandish, Thin'"
         id="path1918" /><path
         d="m 75.713104,103.67746 q -1.090235,-3.964496 -4.162718,-6.194524 -3.022926,-2.230027 -7.2352,-2.230027 -4.65828,0 -8.127211,3.369819 -3.419376,3.320262 -3.419376,7.879432 0,0.7929 0.04956,1.18935 0.545118,4.90606 4.113162,7.73076 3.171595,2.52736 7.532537,2.52736 2.477809,0 4.65828,-0.84245 2.180471,-0.89201 3.716713,-2.62648 l 5.649403,5.84763 q -3.022927,3.07248 -6.34319,4.46005 -3.320263,1.38758 -7.681206,1.38758 -8.176767,0 -14.024395,-5.64941 -5.847627,-5.6494 -5.847627,-13.72705 0,-8.176772 5.649403,-13.925287 5.698959,-5.798072 13.82617,-5.798072 8.176768,0 14.272176,6.095409 6.144965,6.045852 6.144965,14.12351 0,0.89201 0,1.73446 -0.148669,0.74335 -0.198225,1.09024 H 56.336643 q -0.892011,0 -1.139792,-0.74334 -0.24778,-0.74335 -0.24778,-2.03181 0,-0.54511 0,-0.7929 0,-0.64423 0,-0.99112 0,-0.94157 0.198224,-1.38757 0.198225,-0.49556 0.941567,-0.49556 z"
         style="font-weight:100;font-size:59.4674px;font-family:Brandish;-inkscape-font-specification:'Brandish, Thin'"
         id="path1920" /><path
         d="m 88.79599,76.372009 h 8.325436 v 9.911234 h 5.748514 v 8.721885 h -5.748514 v 16.452652 q 0,1.33801 0.446005,2.32913 0.495562,0.99113 1.536241,2.03181 1.982248,1.98224 4.658278,1.98224 0.89201,0 1.38757,-0.0991 v 8.12721 q -0.34689,0 -0.79289,0 -0.39645,0.0496 -0.54512,0.0496 -2.23003,0 -4.360944,-0.69379 -2.626477,-0.84245 -5.798072,-3.02292 -1.93269,-1.33802 -3.320263,-4.16272 -1.536241,-3.12204 -1.536241,-6.34319 z"
         style="font-weight:100;font-size:59.4674px;font-family:Brandish;-inkscape-font-specification:'Brandish, Thin'"
         id="path1922" /><path
         d="m 110.45207,126.02729 v -8.62277 q 1.88314,-0.3469 3.1716,-1.09024 1.33801,-0.7929 2.62647,-2.23003 2.03181,-2.18047 2.18048,-5.30251 0.14866,-3.17159 0.24778,-5.30251 0.34689,-3.46893 0.74334,-4.955614 0.59467,-2.230028 2.0318,-4.410499 2.3787,-3.568044 5.2034,-5.252954 3.02293,-1.833578 7.08653,-1.833578 v 8.820998 q -3.17159,0.693786 -5.2034,3.270707 -1.09023,1.33802 -1.38757,2.72559 -0.29734,1.38757 -0.29734,3.51849 0,0.59467 0,1.09023 0,0.49556 0,0.84246 0,4.55916 -0.69378,7.13609 -0.69379,2.57692 -2.97337,5.40162 -2.62648,3.2707 -5.59985,4.75739 -2.97337,1.43713 -7.13609,1.43713 z"
         style="font-weight:100;font-size:59.4674px;font-family:Brandish;-inkscape-font-specification:'Brandish, Thin'"
         id="path1924" /><path
         d="m 157.28263,125.87862 q -9.11834,0 -14.47041,-5.9963 -4.80694,-5.40162 -4.80694,-13.28105 0,-7.978542 4.90606,-13.528833 5.50073,-6.19452 14.81729,-6.19452 9.11834,0 14.4704,5.996296 4.80695,5.401622 4.80695,13.281057 0,7.97854 -4.90606,13.52883 -5.50074,6.19452 -14.81729,6.19452 z m 0.84245,-30.923048 q -5.40162,0 -8.57322,3.568044 -2.87425,3.221154 -2.87425,7.879434 0,4.50961 2.72558,7.58209 3.07249,3.41938 8.32544,3.41938 5.40162,0 8.57322,-3.56805 2.87426,-3.22115 2.87426,-7.87943 0,-4.50961 -2.72559,-7.582093 -3.07249,-3.419375 -8.32544,-3.419375 z"
         style="font-weight:100;font-size:59.4674px;font-family:Brandish;-inkscape-font-specification:'Brandish, Thin'"
         id="path1926" /><path
         d="m 204.85653,116.26472 v 8.87056 q -2.3787,0.59467 -4.85651,0.59467 -8.17676,0 -13.92528,-5.79807 -5.74851,-5.79807 -5.74851,-14.0244 0,-8.077651 5.74851,-13.677497 5.79807,-5.599847 13.97484,-5.599847 2.18047,0 4.60872,0.64423 v 8.672329 q -2.0318,-0.941567 -4.46005,-0.941567 -4.50961,0 -7.87943,2.97337 -3.56805,3.171592 -3.56805,8.077652 0,5.00518 3.56805,8.22633 3.32026,3.02292 7.87943,3.02292 2.47781,0 4.65828,-1.04068 z"
         style="font-weight:100;font-size:59.4674px;font-family:Brandish;-inkscape-font-specification:'Brandish, Thin'"
         id="path1928" /><g
         id="path1797"
         transform="scale(-0.9992998,-1.0007007)"><path
           style="color:#000000;fill:#000000;fill-opacity:0;stroke-width:4.85196;-inkscape-stroke:none"
           d="m -18.78555,-76.16572 a 91.726944,93.851982 0 0 1 -86.25835,61.739715 91.726944,93.851982 0 0 1 -86.16901,-61.870179"
           id="path7488" /><path
           style="color:#000000;fill:#000000;-inkscape-stroke:none"
           d="m -188.92578,-77.105469 -4.57422,1.619141 c 13.47945,38.050068 48.83786,63.456353 88.45508,63.486328 39.617214,0.02998 75.010462,-25.321874 88.54492,-63.351562 l -4.570312,-1.626954 c -12.867671,36.156121 -46.426422,60.155363 -83.972658,60.126954 -37.54623,-0.02841 -71.0674,-24.078293 -83.88281,-60.253907 z"
           id="path7490" /></g><g
         id="path392"
         transform="scale(0.9992998,1.0007007)"><path
           style="color:#000000;fill:#000000;fill-opacity:0;stroke-width:4.77715;-inkscape-stroke:none"
           d="M 190.75453,135.43999 A 91.238007,91.467964 0 0 1 104.95597,195.6114 91.238007,91.467964 0 0 1 19.24627,135.31284"
           id="path7482" /><path
           style="color:#000000;-inkscape-stroke:none"
           d="M 21.492187,134.5 17,136.125 C 30.415497,173.23037 65.580055,197.97081 104.95508,198 144.3301,198.02919 179.52978,173.3413 193,136.25586 L 188.50977,134.625 C 175.7186,169.84091 142.33415,193.25037 104.95703,193.22266 67.579912,193.19495 34.231392,169.73484 21.492187,134.5 Z"
           id="path7484" /></g></g><text
       xml:space="preserve"
       style="font-style:normal;font-weight:normal;font-size:11.5098px;line-height:1.25;font-family:sans-serif;display:none;fill:#000000;fill-opacity:1;stroke:none;stroke-width:0.287745"
       x="2.7664726"
       y="125.82906"
       id="text1916"
       transform="scale(1.0007007,0.9992998)"><tspan
         sodipodi:role="line"
         id="tspan1914"
         style="font-style:normal;font-variant:normal;font-weight:100;font-stretch:normal;font-size:59.4674px;font-family:Brandish;-inkscape-font-specification:'Brandish, Thin';font-variant-ligatures:normal;font-variant-caps:normal;font-variant-numeric:normal;font-variant-east-asian:normal;stroke-width:0.287745"
         x="2.7664726"
         y="125.82906">netsoc</tspan></text></g></svg>
